<svg id="ic_del" xmlns="http://www.w3.org/2000/svg" width="24" height="24" viewBox="0 0 24 24">
  <g id="패스_38434" data-name="패스 38434" fill="#fff">
    <path d="M 12 23.5 C 8.928239822387695 23.5 6.040329933166504 22.30378913879395 3.868269920349121 20.13172912597656 C 1.696210026741028 17.95966911315918 0.5 15.0717601776123 0.5 12 C 0.5 8.928239822387695 1.696210026741028 6.040329933166504 3.868269920349121 3.868269920349121 C 6.040329933166504 1.696210026741028 8.928239822387695 0.5 12 0.5 C 15.0717601776123 0.5 17.95966911315918 1.696210026741028 20.13172912597656 3.868269920349121 C 22.30378913879395 6.040329933166504 23.5 8.928239822387695 23.5 12 C 23.5 15.0717601776123 22.30378913879395 17.95966911315918 20.13172912597656 20.13172912597656 C 17.95966911315918 22.30378913879395 15.0717601776123 23.5 12 23.5 Z" stroke="none"/>
    <path d="M 12 1 C 9.061790466308594 1 6.299449920654297 2.144199371337891 4.221820831298828 4.221820831298828 C 2.144199371337891 6.299449920654297 1 9.061790466308594 1 12 C 1 14.93820953369141 2.144199371337891 17.7005500793457 4.221820831298828 19.77817916870117 C 6.299449920654297 21.85580062866211 9.061790466308594 23 12 23 C 14.93820953369141 23 17.7005500793457 21.85580062866211 19.77817916870117 19.77817916870117 C 21.85580062866211 17.7005500793457 23 14.93820953369141 23 12 C 23 9.061790466308594 21.85580062866211 6.299449920654297 19.77817916870117 4.221820831298828 C 17.7005500793457 2.144199371337891 14.93820953369141 1 12 1 M 12 0 C 18.62742042541504 0 24 5.372579574584961 24 12 C 24 18.62742042541504 18.62742042541504 24 12 24 C 5.372579574584961 24 0 18.62742042541504 0 12 C 0 5.372579574584961 5.372579574584961 0 12 0 Z" stroke="none" fill="#eaeaea"/>
  </g>
  <g id="ic_close" transform="translate(7.008 7.008)">
    <rect id="사각형_27" data-name="사각형 27" width="11" height="11" transform="translate(-0.007 -0.008)" fill="none"/>
    <g id="그룹_12117" data-name="그룹 12117" transform="translate(2.421 2.421)">
      <line id="선_39" data-name="선 39" x1="6" y2="6" transform="translate(-0.429 -0.428)" fill="none" stroke="#595959" stroke-linecap="round" stroke-linejoin="round" stroke-width="1.2"/>
      <line id="선_40" data-name="선 40" x1="6" y1="6" transform="translate(-0.429 -0.428)" fill="none" stroke="#595959" stroke-linecap="round" stroke-linejoin="round" stroke-width="1.2"/>
    </g>
  </g>
</svg>
