<svg xmlns="http://www.w3.org/2000/svg" xmlns:xlink="http://www.w3.org/1999/xlink" width="300" height="300" viewBox="0 0 300 300">
  <defs>
    <clipPath id="clip-path">
      <rect id="사각형_16826" data-name="사각형 16826" width="137.186" height="58.896" fill="#a4a4a4"/>
    </clipPath>
  </defs>
  <g id="no_imge" transform="translate(-861 -4120)">
    <rect id="사각형_16980" data-name="사각형 16980" width="300" height="300" transform="translate(861 4120)" fill="#ebeeee"/>
    <g id="그룹_37803" data-name="그룹 37803" transform="translate(916 4219)">
      <text id="이미지_준비중입니다." data-name="이미지 준비중입니다." transform="translate(95 97.685)" fill="#7b7b7b" font-size="23" font-family="Pretendard-Regular, Pretendard"><tspan x="-95.296" y="0">이미지 준비중입니다.</tspan></text>
      <g id="logo_w" transform="translate(30 0)">
        <g id="그룹_37330" data-name="그룹 37330" clip-path="url(#clip-path)">
          <path id="패스_39099" data-name="패스 39099" d="M18.772.109,21.26.366c.746.078,1.5.125,2.235.241,2.833.444,5.554,1.184,7.729,3.207a7.147,7.147,0,0,1,2.1,7.372A10,10,0,0,1,30.173,16.1,20.136,20.136,0,0,1,25.938,19.1c-2.276,1.279-4.576,2.517-6.862,3.839.155-.019.312-.029.465-.058.955-.184,1.906-.388,2.865-.551a6.944,6.944,0,0,1,1.051-.023l3.127,0a30.275,30.275,0,0,1,4.517.717,20.33,20.33,0,0,1,5.849,2.4A15.344,15.344,0,0,1,43.089,32.2a15.094,15.094,0,0,1,.987,3.44,17.155,17.155,0,0,1,.208,4.184A16.531,16.531,0,0,1,38.94,51.642a22.165,22.165,0,0,1-5.368,3.506,33.221,33.221,0,0,1-7.312,2.468c-1.068.235-2.173.31-3.239.555-.878.2-1.772.2-2.65.351l-1.252.116-.232.013-1.224.019-.9.082-.239.037c-.082-.007-.163-.021-.245-.021L.039,58.776c-.013-.2-.037-.41-.037-.615Q0,29.4,0,.646V.055A2.284,2.284,0,0,1,.351,0Q8.375,0,16.4.007l2.373.1M7.85,1.132l-.091.115c-.006.165-.017.33-.017.494q0,14.438,0,28.876c0,.165.01.33.014.495V31.4l.067.011.137-.292a16.551,16.551,0,0,1,4.857-5.543c1.5-1.12,3.061-2.171,4.574-3.281s3.075-2.169,4.482-3.4a10.867,10.867,0,0,0,3.847-8.819c-.012-.426-.143-.851-.133-1.274a6.411,6.411,0,0,0-.735-2.75,7.326,7.326,0,0,0-3.459-3.581,11.634,11.634,0,0,0-5.232-1.233,3.062,3.062,0,0,0-.572-.116c-.991-.013-1.982-.013-2.972-.01-1.589,0-3.178.015-4.766.023M7.845,33.719l-.053.136c-.017.2-.048.408-.048.611q0,11.18,0,22.36V57.4h8.651l1.008-.1a4.376,4.376,0,0,0,.68-.019c1.313-.235,2.635-.406,3.939-.716a23.627,23.627,0,0,0,5.616-2.027,16.776,16.776,0,0,0,8.455-9.577,18.878,18.878,0,0,0,.9-3.944,18.475,18.475,0,0,0-.362-6.71,12.192,12.192,0,0,0-1.219-3.183c-2.75-4.764-7.067-6.9-12.381-7.308a15.7,15.7,0,0,0-3.925.226,12.4,12.4,0,0,0-5.819,2.5,16.7,16.7,0,0,0-5.252,6.619c-.075.183-.127.374-.189.562" transform="translate(0)" fill="#a4a4a4"/>
          <path id="패스_39100" data-name="패스 39100" d="M393.955,57.227a36.233,36.233,0,0,0,3.575-.682,16.248,16.248,0,0,0,8.591-5.608,13.192,13.192,0,0,0,2.472-5.273c.088-.4.277-.774.352-1.173.152-.815.225-1.644.387-2.457a33.133,33.133,0,0,0,.382-6.521q0-17.3,0-34.59c0-.248.01-.5.016-.743l.095-.108H411.1V.7q0,18.065-.007,36.13c0,1.194-.051,2.392-.169,3.579a28.571,28.571,0,0,1-.726,4.478,19.226,19.226,0,0,1-4.175,8.159,16.51,16.51,0,0,1-7.68,4.873c-1.131.339-2.306.526-3.463.777a1.375,1.375,0,0,1-.309,0l-1.371.119H389.87l-1.5-.114a19.478,19.478,0,0,1-3.618-.5,21.811,21.811,0,0,1-8.451-3.527,15.4,15.4,0,0,1-5.228-6.314,19.84,19.84,0,0,1-1.285-4.206,22.947,22.947,0,0,1-.4-4.721q0-19.434,0-38.867V.094h7.742v.7q0,19.062,0,38.124c0,1.135.005,2.275.108,3.4a22.166,22.166,0,0,0,.482,2.623,18.329,18.329,0,0,0,3.83,8.023,11.765,11.765,0,0,0,6.926,4,6.3,6.3,0,0,0,1.877.254l2.72.1.886-.094" transform="translate(-273.914 -0.053)" fill="#a4a4a4"/>
          <path id="패스_39101" data-name="패스 39101" d="M216.151,56.234a6.208,6.208,0,0,0,2.574-1.415c.366-.3.7-.647,1.065-.944a.479.479,0,0,1,.424-.081c.208.133.1.343-.033.473-.6.565-1.187,1.152-1.831,1.666a13.265,13.265,0,0,1-5.026,2.559c-.373.1-.758.145-1.137.215l-1.756,0a5.415,5.415,0,0,1-4.568-4.222,10.488,10.488,0,0,1-.355-2.733c-.024-.888-.009-1.777-.009-2.665q0-24.081,0-48.162c0-.248.01-.5.015-.743l.095-.108h7.556l.1.1c.006.247.018.495.018.742q0,24.995,0,49.99c0,.661-.044,1.326.022,1.98a6.15,6.15,0,0,0,.634,2.36,1.83,1.83,0,0,0,1.2.989,1.03,1.03,0,0,0,1.007,0" transform="translate(-152.385 -0.053)" fill="#a4a4a4"/>
          <path id="패스_39102" data-name="패스 39102" d="M296.505,107.029a4.444,4.444,0,0,1-2.343-.935,5.263,5.263,0,0,1-1.83-2.291,7.557,7.557,0,0,1-.657-2.841c-.014-.536-.033-1.073-.033-1.609q0-16.688,0-33.375c0-.246.022-.492.035-.738l7.675,0c.01.247.029.493.029.74q0,16.751.011,33.5a23.818,23.818,0,0,0,.23,2.831,4.086,4.086,0,0,0,.363,1.11,1.886,1.886,0,0,0,1.232,1.131,1.217,1.217,0,0,0,1.122-.005,7.99,7.99,0,0,0,3.252-2.07,2.76,2.76,0,0,1,.412-.37.355.355,0,0,1,.331.013.36.36,0,0,1,.051.327,1.1,1.1,0,0,1-.265.336,14.949,14.949,0,0,1-6.256,3.92c-.482.15-.99.218-1.486.324h-1.874" transform="translate(-216.266 -48.378)" fill="#a4a4a4"/>
          <path id="패스_39103" data-name="패스 39103" d="M295.837,2.291a3.887,3.887,0,0,1,3.485,4.194,4.011,4.011,0,0,1-3.907,3.555,4.066,4.066,0,0,1-3.849-3.6,3.921,3.921,0,0,1,3.513-4.156l.758,0" transform="translate(-216.204 -1.697)" fill="#a4a4a4"/>
          <path id="패스_39104" data-name="패스 39104" d="M.152,227.393l16.245-.008c.082,0,.163.014.245.021a3.467,3.467,0,0,1-.59.1q-7.661.009-15.322,0a2.935,2.935,0,0,1-.578-.117" transform="translate(-0.113 -168.617)" fill="#a4a4a4"/>
          <path id="패스_39105" data-name="패스 39105" d="M299.456,64.888l-7.675,0a1.269,1.269,0,0,1,.364-.119q3.476-.011,6.952,0a1.2,1.2,0,0,1,.359.123" transform="translate(-216.37 -48.022)" fill="#a4a4a4"/>
          <path id="패스_39106" data-name="패스 39106" d="M93.889,85.894l-3.127,0a8.931,8.931,0,0,1,3.127,0" transform="translate(-67.305 -63.594)" fill="#a4a4a4"/>
          <path id="패스_39107" data-name="패스 39107" d="M453.235,221.3l-2.72-.1,2.747.013c-.008.029-.017.057-.027.085" transform="translate(-334.079 -164.028)" fill="#a4a4a4"/>
          <path id="패스_39108" data-name="패스 39108" d="M65.823.13,63.45.028l2.373.1" transform="translate(-47.051 -0.021)" fill="#a4a4a4"/>
          <path id="패스_39109" data-name="패스 39109" d="M310.462,226.934h1.874a3.146,3.146,0,0,1-1.874,0" transform="translate(-230.223 -168.283)" fill="#a4a4a4"/>
          <path id="패스_39110" data-name="패스 39110" d="M224.6,226.939l1.756,0a2.829,2.829,0,0,1-1.756,0" transform="translate(-166.549 -168.286)" fill="#a4a4a4"/>
          <path id="패스_39111" data-name="패스 39111" d="M442.845,226.927l1.5.114-1.5-.114" transform="translate(-328.391 -168.278)" fill="#a4a4a4"/>
          <path id="패스_39112" data-name="패스 39112" d="M461.539,227.022l1.372-.12-1.372.12" transform="translate(-342.254 -168.259)" fill="#a4a4a4"/>
          <path id="패스_39113" data-name="패스 39113" d="M73.98,226.55l1.252-.116-1.252.116" transform="translate(-54.86 -167.912)" fill="#a4a4a4"/>
          <path id="패스_39114" data-name="패스 39114" d="M68.25,226.952l1.224-.019-1.258.1.034-.085" transform="translate(-50.586 -168.282)" fill="#a4a4a4"/>
          <path id="패스_39115" data-name="패스 39115" d="M329.816,217.346a1.216,1.216,0,0,1-1.122.005l1.122-.005" transform="translate(-243.743 -161.173)" fill="#a4a4a4"/>
          <path id="패스_39116" data-name="패스 39116" d="M243.831,217.377a1.03,1.03,0,0,1-1.007,0l1.007,0" transform="translate(-180.066 -161.196)" fill="#a4a4a4"/>
          <path id="패스_39117" data-name="패스 39117" d="M461.039,221.311q.015-.042.027-.085l.859-.008-.886.093" transform="translate(-341.883 -164.044)" fill="#a4a4a4"/>
          <path id="패스_39118" data-name="패스 39118" d="M65.776,227.007l-.034.085-.862,0,.9-.082" transform="translate(-48.112 -168.337)" fill="#a4a4a4"/>
          <path id="패스_39119" data-name="패스 39119" d="M305.94,1.953l-.758,0a.664.664,0,0,1,.758,0" transform="translate(-226.308 -1.36)" fill="#a4a4a4"/>
          <path id="패스_39120" data-name="패스 39120" d="M235.274.178l-.1-.1.1.1" transform="translate(-174.395 -0.056)" fill="#a4a4a4"/>
          <path id="패스_39121" data-name="패스 39121" d="M205.67.071l-.095.108.095-.108" transform="translate(-152.444 -0.053)" fill="#a4a4a4"/>
          <path id="패스_39124" data-name="패스 39124" d="M38.687,4.411l-8.3.008a.531.531,0,0,1-.011-.111c1.589-.008,3.177-.018,4.766-.023.991,0,1.982,0,2.972.01a3.071,3.071,0,0,1,.572.116" transform="translate(-22.525 -3.177)" fill="#a4a4a4"/>
          <path id="패스_39125" data-name="패스 39125" d="M63.429,221.8l1.008-.1-1.008.1" transform="translate(-47.036 -164.401)" fill="#a4a4a4"/>
          <path id="패스_39126" data-name="패스 39126" d="M30.015,120.379l.2.005-.137.292-.067-.011Z" transform="translate(-22.258 -89.267)" fill="#a4a4a4"/>
          <path id="패스_39127" data-name="패스 39127" d="M30.113,4.379a.514.514,0,0,0,.011.111l-.051.01-.051-.006.091-.115" transform="translate(-22.263 -3.247)" fill="#a4a4a4"/>
          <path id="패스_39128" data-name="패스 39128" d="M30.2,130.465l-.054.136.054-.136" transform="translate(-22.356 -96.746)" fill="#a4a4a4"/>
        </g>
      </g>
    </g>
  </g>
</svg>
