<svg xmlns="http://www.w3.org/2000/svg" width="40" height="40" viewBox="0 0 40 40">
  <g id="btn_add_img" transform="translate(-81 -797)">
    <g id="그룹_12370" data-name="그룹 12370" transform="translate(81 797)">
      <rect id="사각형_9210" data-name="사각형 9210" width="40" height="40" fill="none"/>
      <path id="패스_38499" data-name="패스 38499" d="M52.75,35.75H48.419l-1.763-2.638A2.5,2.5,0,0,0,44.581,32H35.919a2.5,2.5,0,0,0-2.075,1.113L32.081,35.75H27.75A3.75,3.75,0,0,0,24,39.5V57a3.75,3.75,0,0,0,3.75,3.75h25A3.75,3.75,0,0,0,56.5,57V39.5A3.75,3.75,0,0,0,52.75,35.75ZM45.25,49.5H41.5v3.75a1.25,1.25,0,0,1-2.5,0V49.5H35.25a1.25,1.25,0,0,1,0-2.5H39V43.25a1.25,1.25,0,0,1,2.5,0V47h3.75a1.25,1.25,0,0,1,0,2.5Z" transform="translate(-20.25 -27)" fill="#e1e1e1"/>
    </g>
  </g>
</svg>
