<svg id="ic_rv_on" xmlns="http://www.w3.org/2000/svg" width="16" height="16" viewBox="0 0 16 16">
  <rect id="사각형_16932" data-name="사각형 16932" width="16" height="16" fill="none"/>
  <path id="패스_39145" data-name="패스 39145" d="M30.509,34.318l3.42,2.1a.525.525,0,0,0,.783-.573l-.93-3.924L36.825,29.3a.529.529,0,0,0-.3-.924l-3.994-.325-1.539-3.725a.522.522,0,0,0-.967,0l-1.539,3.725-3.994.325a.529.529,0,0,0-.3.927l3.044,2.625-.93,3.921a.525.525,0,0,0,.783.573Z" transform="translate(-22.509 -22.499)" fill="#ff6192"/>
</svg>
